<svg width="36" height="36" viewBox="0 0 36 36" fill="none" xmlns="http://www.w3.org/2000/svg">
<path d="M18 23.625C14.895 23.625 12.375 21.105 12.375 18C12.375 14.895 14.895 12.375 18 12.375C21.105 12.375 23.625 14.895 23.625 18C23.625 21.105 21.105 23.625 18 23.625ZM18 14.625C16.14 14.625 14.625 16.14 14.625 18C14.625 19.86 16.14 21.375 18 21.375C19.86 21.375 21.375 19.86 21.375 18C21.375 16.14 19.86 14.625 18 14.625Z" fill="white"/>
<path d="M22.815 33.285C22.5 33.285 22.185 33.24 21.87 33.165C20.94 32.91 20.16 32.325 19.665 31.5L19.485 31.2C18.6 29.67 17.385 29.67 16.5 31.2L16.335 31.485C15.84 32.325 15.06 32.925 14.13 33.165C13.185 33.42 12.21 33.285 11.385 32.79L8.805 31.305C7.89 30.78 7.23 29.925 6.945 28.89C6.675 27.855 6.81 26.79 7.335 25.875C7.77 25.11 7.89 24.42 7.635 23.985C7.38 23.55 6.735 23.295 5.85 23.295C3.66 23.295 1.875 21.51 1.875 19.32V16.68C1.875 14.49 3.66 12.705 5.85 12.705C6.735 12.705 7.38 12.45 7.635 12.015C7.89 11.58 7.785 10.89 7.335 10.125C6.81 9.21 6.675 8.13 6.945 7.11C7.215 6.075 7.875 5.22 8.805 4.695L11.4 3.21C13.095 2.205 15.33 2.79 16.35 4.515L16.53 4.815C17.415 6.345 18.63 6.345 19.515 4.815L19.68 4.53C20.7 2.79 22.935 2.205 24.645 3.225L27.225 4.71C28.14 5.235 28.8 6.09 29.085 7.125C29.355 8.16 29.22 9.225 28.695 10.14C28.26 10.905 28.14 11.595 28.395 12.03C28.65 12.465 29.295 12.72 30.18 12.72C32.37 12.72 34.155 14.505 34.155 16.695V19.335C34.155 21.525 32.37 23.31 30.18 23.31C29.295 23.31 28.65 23.565 28.395 24C28.14 24.435 28.245 25.125 28.695 25.89C29.22 26.805 29.37 27.885 29.085 28.905C28.815 29.94 28.155 30.795 27.225 31.32L24.63 32.805C24.06 33.12 23.445 33.285 22.815 33.285ZM18 27.735C19.335 27.735 20.58 28.575 21.435 30.06L21.6 30.345C21.78 30.66 22.08 30.885 22.44 30.975C22.8 31.065 23.16 31.02 23.46 30.84L26.055 29.34C26.445 29.115 26.745 28.74 26.865 28.29C26.985 27.84 26.925 27.375 26.7 26.985C25.845 25.515 25.74 24 26.4 22.845C27.06 21.69 28.425 21.03 30.135 21.03C31.095 21.03 31.86 20.265 31.86 19.305V16.665C31.86 15.72 31.095 14.94 30.135 14.94C28.425 14.94 27.06 14.28 26.4 13.125C25.74 11.97 25.845 10.455 26.7 8.985C26.925 8.595 26.985 8.13 26.865 7.68C26.745 7.23 26.46 6.87 26.07 6.63L23.475 5.145C22.83 4.755 21.975 4.98 21.585 5.64L21.42 5.925C20.565 7.41 19.32 8.25 17.985 8.25C16.65 8.25 15.405 7.41 14.55 5.925L14.385 5.625C14.01 4.995 13.17 4.77 12.525 5.145L9.93 6.645C9.54 6.87 9.24 7.245 9.12 7.695C9 8.145 9.06 8.61 9.285 9C10.14 10.47 10.245 11.985 9.585 13.14C8.925 14.295 7.56 14.955 5.85 14.955C4.89 14.955 4.125 15.72 4.125 16.68V19.32C4.125 20.265 4.89 21.045 5.85 21.045C7.56 21.045 8.925 21.705 9.585 22.86C10.245 24.015 10.14 25.53 9.285 27C9.06 27.39 9 27.855 9.12 28.305C9.24 28.755 9.525 29.115 9.915 29.355L12.51 30.84C12.825 31.035 13.2 31.08 13.545 30.99C13.905 30.9 14.205 30.66 14.4 30.345L14.565 30.06C15.42 28.59 16.665 27.735 18 27.735Z" fill="white"/>
</svg>
