<svg width="25" height="24" viewBox="0 0 25 24" fill="none" xmlns="http://www.w3.org/2000/svg">
<g opacity="0.8">
<path d="M13.1003 3.96C13.5717 4.67 13.8467 5.52 13.8467 6.44C13.8369 8.84 11.9806 10.79 9.64311 10.87C9.54489 10.86 9.42704 10.86 9.319 10.87C6.98146 10.79 5.12518 8.84 5.12518 6.44C5.12518 3.99 7.06986 2 9.48596 2" stroke="#292D32" stroke-width="1.5" stroke-linecap="round" stroke-linejoin="round"/>
<path d="M16.7638 4C18.6692 4 20.2013 5.57 20.2013 7.5C20.2013 9.39 18.7281 10.93 16.8915 11C16.8129 10.99 16.7245 10.99 16.6361 11" stroke="#292D32" stroke-width="1.5" stroke-linecap="round" stroke-linejoin="round"/>
<path d="M4.73232 14.56C2.3555 16.18 2.3555 18.82 4.73232 20.43C7.43326 22.27 11.8628 22.27 14.5637 20.43C16.9405 18.81 16.9405 16.17 14.5637 14.56C11.8726 12.73 7.44308 12.73 4.73232 14.56Z" stroke="#292D32" stroke-width="1.5" stroke-linecap="round" stroke-linejoin="round"/>
<path d="M18.6593 20C19.3665 19.85 20.0343 19.56 20.5843 19.13C22.1165 17.96 22.1165 16.03 20.5843 14.86C20.0441 14.44 19.3861 14.16 18.6888 14" stroke="#292D32" stroke-width="1.5" stroke-linecap="round" stroke-linejoin="round"/>
</g>
</svg>
