<svg width="24" height="25" viewBox="0 0 24 25" fill="none" xmlns="http://www.w3.org/2000/svg">
<path d="M21 20.4091H11C10.59 20.4091 10.25 20.0663 10.25 19.6529C10.25 19.2395 10.59 18.8967 11 18.8967H21C21.41 18.8967 21.75 19.2395 21.75 19.6529C21.75 20.0663 21.41 20.4091 21 20.4091Z" fill="#292D32"/>
<path d="M21 13.3512H11C10.59 13.3512 10.25 13.0084 10.25 12.595C10.25 12.1816 10.59 11.8388 11 11.8388H21C21.41 11.8388 21.75 12.1816 21.75 12.595C21.75 13.0084 21.41 13.3512 21 13.3512Z" fill="#292D32"/>
<path d="M21 6.29337H11C10.59 6.29337 10.25 5.95056 10.25 5.53717C10.25 5.12379 10.59 4.78098 11 4.78098H21C21.41 4.78098 21.75 5.12379 21.75 5.53717C21.75 5.95056 21.41 6.29337 21 6.29337Z" fill="#292D32"/>
<path d="M3.99994 7.30164C3.80994 7.30164 3.61994 7.23106 3.46994 7.07982L2.46994 6.07155C2.17994 5.77916 2.17994 5.29519 2.46994 5.00279C2.75994 4.7104 3.23994 4.7104 3.52994 5.00279L3.99994 5.47668L6.46994 2.98627C6.75994 2.69387 7.23994 2.69387 7.52994 2.98627C7.81994 3.27866 7.81994 3.76263 7.52994 4.05503L4.52994 7.07982C4.37994 7.23106 4.18994 7.30164 3.99994 7.30164Z" fill="#292D32"/>
<path d="M3.99994 14.3595C3.80994 14.3595 3.61994 14.2889 3.46994 14.1377L2.46994 13.1294C2.17994 12.837 2.17994 12.3531 2.46994 12.0607C2.75994 11.7683 3.23994 11.7683 3.52994 12.0607L3.99994 12.5345L6.46994 10.0441C6.75994 9.75173 7.23994 9.75173 7.52994 10.0441C7.81994 10.3365 7.81994 10.8205 7.52994 11.1129L4.52994 14.1377C4.37994 14.2889 4.18994 14.3595 3.99994 14.3595Z" fill="#292D32"/>
<path d="M3.99994 21.4174C3.80994 21.4174 3.61994 21.3468 3.46994 21.1955L2.46994 20.1873C2.17994 19.8949 2.17994 19.4109 2.46994 19.1185C2.75994 18.8261 3.23994 18.8261 3.52994 19.1185L3.99994 19.5924L6.46994 17.102C6.75994 16.8096 7.23994 16.8096 7.52994 17.102C7.81994 17.3944 7.81994 17.8784 7.52994 18.1707L4.52994 21.1955C4.37994 21.3468 4.18994 21.4174 3.99994 21.4174Z" fill="#292D32"/>
</svg>
