<svg width="34" height="34" viewBox="0 0 34 34" fill="none" xmlns="http://www.w3.org/2000/svg">
    <path d="M12.9761 16.4617C12.9336 16.4617 12.9053 16.4617 12.8628 16.4617C12.792 16.4475 12.6928 16.4475 12.6078 16.4617C8.49947 16.3342 5.39697 13.1042 5.39697 9.12334C5.39697 5.07168 8.69781 1.77084 12.7495 1.77084C16.8011 1.77084 20.102 5.07168 20.102 9.12334C20.0878 13.1042 16.9711 16.3342 13.0186 16.4617C13.0045 16.4617 12.9903 16.4617 12.9761 16.4617ZM12.7495 3.89584C9.87364 3.89584 7.52197 6.24751 7.52197 9.12334C7.52197 11.9567 9.73197 14.2375 12.5511 14.3367C12.6361 14.3225 12.8203 14.3225 13.0045 14.3367C15.7811 14.2092 17.9628 11.9283 17.977 9.12334C17.977 6.24751 15.6253 3.89584 12.7495 3.89584Z"
          fill="white"/>
    <path d="M23.4311 16.6458C23.3886 16.6458 23.3461 16.6458 23.3036 16.6317C22.7228 16.6883 22.1278 16.2775 22.0711 15.6967C22.0144 15.1158 22.3686 14.5917 22.9494 14.5208C23.1194 14.5067 23.3036 14.5067 23.4594 14.5067C25.5278 14.3933 27.1428 12.6933 27.1428 10.6108C27.1428 8.45749 25.4003 6.71499 23.2469 6.71499C22.6661 6.72916 22.1844 6.24749 22.1844 5.66666C22.1844 5.08582 22.6661 4.60416 23.2469 4.60416C26.5619 4.60416 29.2678 7.30999 29.2678 10.625C29.2678 13.8833 26.7178 16.5183 23.4736 16.6458C23.4594 16.6458 23.4453 16.6458 23.4311 16.6458Z"
          fill="white"/>
    <path d="M12.9903 31.9458C10.2136 31.9458 7.42278 31.2375 5.31195 29.8208C3.34278 28.5175 2.26611 26.7325 2.26611 24.7917C2.26611 22.8508 3.34278 21.0517 5.31195 19.7342C9.56195 16.915 16.4469 16.915 20.6686 19.7342C22.6236 21.0375 23.7144 22.8225 23.7144 24.7633C23.7144 26.7042 22.6378 28.5033 20.6686 29.8208C18.5436 31.2375 15.7669 31.9458 12.9903 31.9458ZM6.48778 21.5192C5.12778 22.4258 4.39111 23.5875 4.39111 24.8058C4.39111 26.01 5.14195 27.1717 6.48778 28.0642C10.0153 30.43 15.9653 30.43 19.4928 28.0642C20.8528 27.1575 21.5894 25.9958 21.5894 24.7775C21.5894 23.5733 20.8386 22.4117 19.4928 21.5192C15.9653 19.1675 10.0153 19.1675 6.48778 21.5192Z"
          fill="white"/>
    <path d="M25.9811 29.3958C25.4853 29.3958 25.0461 29.0558 24.9469 28.5458C24.8336 27.965 25.2019 27.4125 25.7686 27.285C26.6611 27.1008 27.4828 26.7467 28.1203 26.2508C28.9278 25.6417 29.3669 24.8767 29.3669 24.0692C29.3669 23.2617 28.9278 22.4967 28.1344 21.9017C27.5111 21.42 26.7319 21.08 25.8111 20.8675C25.2444 20.74 24.8761 20.1733 25.0036 19.5925C25.1311 19.0258 25.6978 18.6575 26.2786 18.785C27.4969 19.0542 28.5594 19.5358 29.4236 20.2017C30.7411 21.1933 31.4919 22.5958 31.4919 24.0692C31.4919 25.5425 30.7269 26.945 29.4094 27.9508C28.5311 28.6308 27.4261 29.1267 26.2078 29.3675C26.1228 29.3958 26.0519 29.3958 25.9811 29.3958Z"
          fill="white"/>
</svg>
