<svg width="24" height="26" viewBox="0 0 24 26" fill="none" xmlns="http://www.w3.org/2000/svg">
    <path d="M7 11.7562H5C2.58 11.7562 1.25 10.4152 1.25 7.97522V5.9587C1.25 3.5187 2.58 2.1777 5 2.1777H7C9.42 2.1777 10.75 3.5187 10.75 5.9587V7.97522C10.75 10.4152 9.42 11.7562 7 11.7562ZM5 3.6901C3.42 3.6901 2.75 4.36564 2.75 5.9587V7.97522C2.75 9.56828 3.42 10.2438 5 10.2438H7C8.58 10.2438 9.25 9.56828 9.25 7.97522V5.9587C9.25 4.36564 8.58 3.6901 7 3.6901H5Z"
          fill="#292D32"/>
    <path d="M19 11.7562H17C14.58 11.7562 13.25 10.4152 13.25 7.97522V5.9587C13.25 3.5187 14.58 2.1777 17 2.1777H19C21.42 2.1777 22.75 3.5187 22.75 5.9587V7.97522C22.75 10.4152 21.42 11.7562 19 11.7562ZM17 3.6901C15.42 3.6901 14.75 4.36564 14.75 5.9587V7.97522C14.75 9.56828 15.42 10.2438 17 10.2438H19C20.58 10.2438 21.25 9.56828 21.25 7.97522V5.9587C21.25 4.36564 20.58 3.6901 19 3.6901H17Z"
          fill="#292D32"/>
    <path d="M19 23.8554H17C14.58 23.8554 13.25 22.5144 13.25 20.0744V18.0578C13.25 15.6178 14.58 14.2769 17 14.2769H19C21.42 14.2769 22.75 15.6178 22.75 18.0578V20.0744C22.75 22.5144 21.42 23.8554 19 23.8554ZM17 15.7893C15.42 15.7893 14.75 16.4648 14.75 18.0578V20.0744C14.75 21.6674 15.42 22.343 17 22.343H19C20.58 22.343 21.25 21.6674 21.25 20.0744V18.0578C21.25 16.4648 20.58 15.7893 19 15.7893H17Z"
          fill="#292D32"/>
    <path d="M7 23.8554H5C2.58 23.8554 1.25 22.5144 1.25 20.0744V18.0578C1.25 15.6178 2.58 14.2769 5 14.2769H7C9.42 14.2769 10.75 15.6178 10.75 18.0578V20.0744C10.75 22.5144 9.42 23.8554 7 23.8554ZM5 15.7893C3.42 15.7893 2.75 16.4648 2.75 18.0578V20.0744C2.75 21.6674 3.42 22.343 5 22.343H7C8.58 22.343 9.25 21.6674 9.25 20.0744V18.0578C9.25 16.4648 8.58 15.7893 7 15.7893H5Z"
          fill="#292D32"/>
</svg>
