<svg width="70" height="64" viewBox="0 0 70 64" fill="none" xmlns="http://www.w3.org/2000/svg">
<path d="M26.25 58.4425H43.75C58.3333 58.4425 64.1666 53.1314 64.1666 39.8536V23.9203C64.1666 10.6425 58.3333 5.33139 43.75 5.33139H26.25C11.6666 5.33139 5.83331 10.6425 5.83331 23.9203V39.8536C5.83331 53.1314 11.6666 58.4425 26.25 58.4425Z" stroke="#F9F9F9" stroke-width="4.375" stroke-linecap="round" stroke-linejoin="round"/>
<path d="M26.25 26.5758C29.4717 26.5758 32.0834 24.198 32.0834 21.2647C32.0834 18.3315 29.4717 15.9536 26.25 15.9536C23.0284 15.9536 20.4167 18.3315 20.4167 21.2647C20.4167 24.198 23.0284 26.5758 26.25 26.5758Z" stroke="#F9F9F9" stroke-width="4.375" stroke-linecap="round" stroke-linejoin="round"/>
<path d="M7.78754 50.3419L22.1667 41.5521C24.4709 40.1446 27.7959 40.3039 29.8667 41.9238L30.8292 42.6939C33.1042 44.4732 36.7792 44.4732 39.0542 42.6939L51.1875 33.2136C53.4625 31.4344 57.1375 31.4344 59.4125 33.2136L64.1667 36.9314" stroke="#F9F9F9" stroke-width="4.375" stroke-linecap="round" stroke-linejoin="round"/>
</svg>
