<svg width="24" height="25" viewBox="0 0 24 25" fill="none" xmlns="http://www.w3.org/2000/svg">
<path d="M9 18.343C8.9 18.343 8.81 18.3228 8.71 18.2825C8.43 18.1716 8.25 17.8893 8.25 17.5868V11.5372C8.25 11.1238 8.59 10.781 9 10.781C9.41 10.781 9.75 11.1238 9.75 11.5372V15.7618L10.47 15.0359C10.76 14.7435 11.24 14.7435 11.53 15.0359C11.82 15.3283 11.82 15.8122 11.53 16.1046L9.53 18.1212C9.39 18.2623 9.19 18.343 9 18.343Z" fill="#292D32"/>
<path d="M8.99994 18.343C8.80994 18.343 8.61994 18.2724 8.46994 18.1212L6.46994 16.1046C6.17994 15.8122 6.17994 15.3283 6.46994 15.0359C6.75994 14.7435 7.23994 14.7435 7.52994 15.0359L9.52994 17.0524C9.81994 17.3448 9.81994 17.8288 9.52994 18.1212C9.37994 18.2724 9.18994 18.343 8.99994 18.343Z" fill="#292D32"/>
<path d="M15 23.3843H9C3.57 23.3843 1.25 21.0451 1.25 15.5703V9.52068C1.25 4.04581 3.57 1.70663 9 1.70663H14C14.41 1.70663 14.75 2.04944 14.75 2.46283C14.75 2.87622 14.41 3.21903 14 3.21903H9C4.39 3.21903 2.75 4.87259 2.75 9.52068V15.5703C2.75 20.2184 4.39 21.8719 9 21.8719H15C19.61 21.8719 21.25 20.2184 21.25 15.5703V10.5289C21.25 10.1156 21.59 9.77275 22 9.77275C22.41 9.77275 22.75 10.1156 22.75 10.5289V15.5703C22.75 21.0451 20.43 23.3843 15 23.3843Z" fill="#292D32"/>
<path d="M22 11.2851H18C14.58 11.2851 13.25 9.94413 13.25 6.49587V2.46281C13.25 2.16033 13.43 1.87802 13.71 1.76711C13.99 1.64612 14.31 1.71669 14.53 1.92843L22.53 9.99454C22.74 10.2063 22.81 10.539 22.69 10.8213C22.57 11.1036 22.3 11.2851 22 11.2851ZM14.75 4.28777V6.49587C14.75 9.09719 15.42 9.77273 18 9.77273H20.19L14.75 4.28777Z" fill="#292D32"/>
</svg>
