<svg width="36" height="36" viewBox="0 0 36 36" fill="none" xmlns="http://www.w3.org/2000/svg">
<path d="M26.61 34.125H9.39C5.655 34.125 2.625 31.095 2.625 27.36V17.265C2.625 13.53 5.655 10.5 9.39 10.5H26.61C30.345 10.5 33.375 13.53 33.375 17.265V19.425C33.375 20.04 32.865 20.55 32.25 20.55H29.22C28.695 20.55 28.215 20.745 27.87 21.105L27.855 21.12C27.435 21.525 27.24 22.08 27.285 22.65C27.375 23.64 28.32 24.435 29.4 24.435H32.25C32.865 24.435 33.375 24.945 33.375 25.56V27.345C33.375 31.095 30.345 34.125 26.61 34.125ZM9.39 12.75C6.9 12.75 4.875 14.775 4.875 17.265V27.36C4.875 29.85 6.9 31.875 9.39 31.875H26.61C29.1 31.875 31.125 29.85 31.125 27.36V26.7H29.4C27.135 26.7 25.215 25.02 25.035 22.86C24.915 21.63 25.365 20.415 26.265 19.53C27.045 18.735 28.095 18.3 29.22 18.3H31.125V17.265C31.125 14.775 29.1 12.75 26.61 12.75H9.39Z" fill="white"/>
<path d="M3.75 19.74C3.135 19.74 2.625 19.23 2.625 18.615V11.7601C2.625 9.52509 4.035 7.50001 6.12 6.70501L18.03 2.20501C19.26 1.74001 20.625 1.90508 21.69 2.65508C22.77 3.40508 23.4 4.62007 23.4 5.92507V11.6251C23.4 12.2401 22.89 12.7501 22.275 12.7501C21.66 12.7501 21.15 12.2401 21.15 11.6251V5.92507C21.15 5.35507 20.88 4.83005 20.4 4.50005C19.92 4.17005 19.35 4.09504 18.81 4.30504L6.9 8.80504C5.685 9.27004 4.86 10.4551 4.86 11.7601V18.615C4.875 19.245 4.365 19.74 3.75 19.74Z" fill="white"/>
<path d="M29.4 26.6999C27.135 26.6999 25.215 25.0199 25.035 22.8599C24.915 21.6149 25.365 20.3999 26.265 19.5149C27.03 18.7349 28.08 18.2999 29.205 18.2999H32.325C33.81 18.3449 34.95 19.5149 34.95 20.9549V24.045C34.95 25.485 33.81 26.6549 32.37 26.6999H29.4ZM32.295 20.5499H29.22C28.695 20.5499 28.215 20.7449 27.87 21.1049C27.435 21.5249 27.225 22.0949 27.285 22.6649C27.375 23.6549 28.32 24.4499 29.4 24.4499H32.34C32.535 24.4499 32.715 24.27 32.715 24.045V20.9549C32.715 20.7299 32.535 20.5649 32.295 20.5499Z" fill="white"/>
<path d="M21 19.125H10.5C9.885 19.125 9.375 18.615 9.375 18C9.375 17.385 9.885 16.875 10.5 16.875H21C21.615 16.875 22.125 17.385 22.125 18C22.125 18.615 21.615 19.125 21 19.125Z" fill="white"/>
</svg>
